<?xml version="1.0"?>
<svg width="286" height="64" xmlns="http://www.w3.org/2000/svg" xmlns:svg="http://www.w3.org/2000/svg" xmlns:xlink="http://www.w3.org/1999/xlink">
 <g class="layer">
  <title>Layer 1</title>
  <g id="svg_1">
   <g id="svg_2">
    <defs fill="#ffffff">
     <path d="m47.5,17.6l-22.5,-12.8l0,52.6l9,-5.2l0,-14.8l6.8,3.9l-0.1,-10.1l-6.7,-3.9l0,-5.9l13.5,7.9l0,-11.7z" fill="#ffffff" id="SVGID_1_"/>
    </defs>
    <clipPath fill="#ffffff" id="SVGID_2_">
     <use fill="#ffffff" id="svg_3" overflow="visible" xlink:href="#SVGID_1_"/>
    </clipPath>
    <g clip-path="url(#SVGID_2_)" id="svg_4">
     <linearGradient fill="#ffffff" id="SVGID_3_" x1="0" x2="1" y1="0.5" y2="0.5">
      <stop fill="#ffffff" offset="0" stop-color="#ff6f00"/>
      <stop fill="#ffffff" offset="1" stop-color="#ffa800"/>
     </linearGradient>
     <path d="m-1.6,4.6l55.2,0l0,52.9l-55.2,0l0,-52.9z" fill="#ffffff" id="svg_5"/>
    </g>
   </g>
  </g>
  <g id="svg_6" transform="matrix(1 0 0 1 0 0)">
   <g id="svg_7">
    <defs fill="#ffffff">
     <path d="m0.5,17.6l22.5,-12.8l0,52.6l-9,-5.2l0,-30.8l-13.5,7.9l0,-11.7z" fill="#ffffff" id="SVGID_4_"/>
    </defs>
    <clipPath fill="#ffffff" id="SVGID_5_">
     <use fill="#ffffff" id="svg_8" overflow="visible" xlink:href="#SVGID_4_"/>
    </clipPath>
    <g clip-path="url(#SVGID_5_)" id="svg_9">
     <linearGradient fill="#ffffff" id="SVGID_6_" x1="0" x2="1" y1="0.5" y2="0.5">
      <stop fill="#ffffff" offset="0" stop-color="#ff6f00"/>
      <stop fill="#ffffff" offset="1" stop-color="#ffa800"/>
     </linearGradient>
     <path d="m-1.9,4.6l55.2,0l0,52.9l-55.2,0l0,-52.9z" fill="#ffffff" id="svg_10" stroke="#0FF" stroke-width="2"/>
    </g>
   </g>
  </g>
  <path d="m88.2,22.1l-10,0l0,27.7l-5.6,0l0,-27.7l-10,0l0,-4.5l25.6,0l0,4.5z" fill="#ffffff" id="svg_11"/>
  <path d="m94.9,49.2c-3.4,0 -6.2,-1.1 -8.3,-3.2c-2.1,-2.1 -3.2,-5 -3.2,-8.6l0,-0.7c0,-2.2 0.4,-4.4 1.4,-6.4c0.9,-1.8 2.2,-3.3 3.9,-4.4c1.7,-1.1 3.6,-1.6 5.6,-1.6c3.3,0 5.8,1 7.6,3.1s2.7,5 2.7,8.8l0,2.2l-15.7,0c0.1,1.8 0.8,3.4 2,4.7c1.2,1.2 2.7,1.8 4.4,1.7c2.4,0.1 4.6,-1.1 6,-3l2.9,2.8c-1,1.4 -2.3,2.6 -3.8,3.3c-1.8,1 -3.6,1.4 -5.5,1.3zm-0.6,-20.5c-1.4,-0.1 -2.7,0.5 -3.6,1.5c-1,1.2 -1.6,2.7 -1.7,4.3l10.3,0l0,-0.4c-0.1,-1.8 -0.6,-3.2 -1.4,-4.1c-1,-0.8 -2.3,-1.4 -3.6,-1.3zm19.4,-3.9l0.2,2.8c1.7,-2.1 4.3,-3.3 7,-3.2c5,0 7.5,2.9 7.6,8.6l0,15.8l-5.4,0l0,-15.5c0,-1.5 -0.3,-2.6 -1,-3.4c-0.7,-0.7 -1.7,-1.1 -3.2,-1.1c-2.1,-0.1 -4,1.1 -4.9,2.9l0,17l-5.4,0l0,-24l5.1,0.1zm32.2,17.5c0,-0.9 -0.4,-1.7 -1.2,-2.2c-1.2,-0.7 -2.6,-1.1 -3.9,-1.3c-1.6,-0.3 -3.1,-0.8 -4.6,-1.5c-2.7,-1.3 -4,-3.2 -4,-5.6c0,-2 1,-4 2.6,-5.2c1.7,-1.4 4,-2.1 6.6,-2.1c2.9,0 5.2,0.7 6.9,2.1c1.7,1.3 2.7,3.4 2.6,5.5l-5.4,0c0,-1 -0.4,-1.9 -1.2,-2.6c-0.9,-0.7 -1.9,-1.1 -3.1,-1c-1,0 -2,0.2 -2.9,0.8c-0.7,0.5 -1.1,1.3 -1.1,2.2c0,0.8 0.4,1.5 1,1.9c0.7,0.5 2.1,0.9 4.2,1.4c1.7,0.3 3.4,0.9 5,1.7c1.1,0.5 2,1.3 2.7,2.3c0.6,1 0.9,2.1 0.9,3.3c0,2.1 -1,4 -2.7,5.2c-1.8,1.3 -4.1,2 -7,2c-1.8,0 -3.6,-0.3 -5.2,-1.1c-1.4,-0.6 -2.7,-1.6 -3.6,-2.9c-0.8,-1.2 -1.3,-2.6 -1.3,-4l5.2,0c0,1.1 0.5,2.2 1.4,2.9c1,0.7 2.3,1.1 3.5,1c1.4,0 2.5,-0.3 3.2,-0.8c1,-0.4 1.4,-1.2 1.4,-2zm8.1,-5.7c0,-2.2 0.4,-4.4 1.4,-6.3c0.9,-1.8 2.2,-3.3 3.9,-4.3c1.8,-1 3.8,-1.6 5.8,-1.5c3.2,0 5.9,1 7.9,3.1s3.1,4.8 3.3,8.3l0,1.3c0,2.2 -0.4,4.3 -1.4,6.3c-0.8,1.8 -2.2,3.3 -3.9,4.3c-1.8,1 -3.8,1.6 -5.9,1.5c-3.4,0 -6.1,-1.1 -8.1,-3.4c-2,-2.2 -3,-5.2 -3.1,-9l0.1,-0.3zm5.3,0.5c0,2.5 0.5,4.4 1.5,5.8c1.8,2.3 5.1,2.8 7.5,1c0.4,-0.3 0.7,-0.6 1,-1c1,-1.4 1.5,-3.5 1.5,-6.2c0,-2.4 -0.5,-4.3 -1.6,-5.8c-1.7,-2.3 -5,-2.8 -7.4,-1.1c-0.4,0.3 -0.8,0.7 -1.1,1c-0.8,1.4 -1.4,3.5 -1.4,6.3zm33.1,-7.3c-0.7,-0.1 -1.5,-0.2 -2.2,-0.2c-2.5,0 -4.1,0.9 -5,2.8l0,16.4l-5.4,0l0,-24l5.1,0l0.1,2.7c1.3,-2.1 3.1,-3.1 5.4,-3.1c0.6,0 1.3,0.1 1.9,0.3l0.1,5.1zm22.5,5.3l-13,0l0,13.7l-5.6,0l0,-32.2l20.5,0l0,4.5l-14.9,0l0,9.6l13,0l0,4.4zm10.7,13.7l-5.4,0l0,-32.3l5.4,0l0,32.3zm3.9,-12.2c0,-2.2 0.4,-4.4 1.4,-6.3c0.9,-1.8 2.2,-3.3 3.9,-4.3c1.8,-1 3.8,-1.6 5.8,-1.5c3.2,0 5.9,1 7.9,3.1s3.1,4.8 3.3,8.3l0,1.3c0,2.2 -0.4,4.3 -1.3,6.3c-0.8,1.8 -2.2,3.3 -3.9,4.3c-1.8,1 -3.8,1.6 -5.9,1.5c-3.4,0 -6.1,-1.1 -8.1,-3.4c-2,-2.2 -3.1,-5.2 -3.1,-9l0,-0.3zm5.4,0.5c0,2.5 0.5,4.4 1.5,5.8c1,1.4 2.6,2.2 4.3,2.1c1.7,0.1 3.3,-0.7 4.2,-2.1c1,-1.4 1.5,-3.5 1.5,-6.2c0,-2.4 -0.5,-4.3 -1.6,-5.8c-1.7,-2.3 -5,-2.8 -7.4,-1.1c-0.4,0.3 -0.8,0.7 -1.1,1c-0.9,1.4 -1.4,3.5 -1.4,6.3zm41.2,4.3l3.8,-16.5l5.2,0l-6.5,24l-4.4,0l-5.1,-16.5l-5.1,16.5l-4.4,0l-6.6,-24l5.3,0l3.9,16.4l4.9,-16.4l4.1,0l4.9,16.5z" fill="#ffffff" id="svg_12" transform="matrix(1 0 0 1 0 0)"/>
 </g>
</svg>